<svg width="60" height="50" viewBox="0 0 60 50" fill="none" xmlns="http://www.w3.org/2000/svg">
<rect width="60" height="50" fill="#F5F5F5"/>
<g id="Frame 4" filter="url(#filter0_d_0_1)">
<rect x="-315" y="-370" width="400" height="450" rx="30" fill="#FBFBFB"/>
<g id="Frame 5">
<g id="Group 6">
<path id="Rectangle 7" d="M0 40C0 45.5228 4.47715 50 10 50H50C55.5228 50 60 45.5228 60 40V10C60 4.47715 55.5228 0 50 0H10C4.47715 0 0 4.47715 0 10V40Z" fill="#644DEA"/>
<path id="Vector" d="M30 30.2L35.2 25M35.2 25L30 19.8M35.2 25H24.8M43 25C43 32.1797 37.1797 38 30 38C22.8203 38 17 32.1797 17 25C17 17.8203 22.8203 12 30 12C37.1797 12 43 17.8203 43 25Z" stroke="#EDEDED" stroke-width="2.5" stroke-linecap="round" stroke-linejoin="round"/>
</g>
</g>
</g>
<defs>
<filter id="filter0_d_0_1" x="-334" y="-389" width="470" height="520" filterUnits="userSpaceOnUse" color-interpolation-filters="sRGB">
<feFlood flood-opacity="0" result="BackgroundImageFix"/>
<feColorMatrix in="SourceAlpha" type="matrix" values="0 0 0 0 0 0 0 0 0 0 0 0 0 0 0 0 0 0 127 0" result="hardAlpha"/>
<feOffset dx="16" dy="16"/>
<feGaussianBlur stdDeviation="17.5"/>
<feComposite in2="hardAlpha" operator="out"/>
<feColorMatrix type="matrix" values="0 0 0 0 0 0 0 0 0 0 0 0 0 0 0 0 0 0 0.09 0"/>
<feBlend mode="normal" in2="BackgroundImageFix" result="effect1_dropShadow_0_1"/>
<feBlend mode="normal" in="SourceGraphic" in2="effect1_dropShadow_0_1" result="shape"/>
</filter>
</defs>
</svg>
